<mxfile host="app.diagrams.net" modified="2024-04-22T03:25:21.330Z" agent="Mozilla/5.0 (Windows NT 10.0; Win64; x64) AppleWebKit/537.36 (KHTML, like Gecko) Chrome/123.0.0.0 Safari/537.36" version="24.2.5" etag="b1IUudRws2R5uTGdyiio" type="github">
  <diagram name="第 1 页" id="-3_6qP_3UcvdMklZL6VI">
    <mxGraphModel>
      <root>
        <mxCell id="0" />
        <mxCell id="1" parent="0" />
      </root>
    </mxGraphModel>
  </diagram>
</mxfile>
